HIERARCHY
ROOT Hips
{
  OFFSET 50.1246 54.827 -8.40277
  CHANNELS 6 Xposition Yposition Zposition Zrotation Xrotation Yrotation
  JOINT spine
  {
    OFFSET 0 5.95438 0.342407
    CHANNELS 3 Zrotation Xrotation Yrotation
    JOINT spine1
    {
      OFFSET 0 8.85602 0
      CHANNELS 3 Zrotation Xrotation Yrotation
      JOINT spine2
      {
        OFFSET 0 8.48567 0
        CHANNELS 3 Zrotation Xrotation Yrotation
        JOINT Neck
        {
          OFFSET 0 21.7863 1.0387
          CHANNELS 3 Zrotation Xrotation Yrotation
          JOINT Head
          {
            OFFSET 0 6.5822 0
            CHANNELS 3 Zrotation Xrotation Yrotation
            End Site
            {
              OFFSET 0 15.9326 -5.25436
            }
          }
        }
        JOINT RightShoulder
        {
          OFFSET -3.57307 9.16386 -0.497525
          CHANNELS 3 Zrotation Xrotation Yrotation
          JOINT RightArm
          {
            OFFSET 0 12.0192 0
            CHANNELS 3 Zrotation Xrotation Yrotation
            JOINT RightArmRoll
            {
              OFFSET 0 6.06755 0
              CHANNELS 3 Zrotation Xrotation Yrotation
              JOINT RightForeArm
              {
                OFFSET 0 17.6726 0
                CHANNELS 3 Zrotation Xrotation Yrotation
                JOINT RightForeArmRoll
                {
                  OFFSET 0 6.80872 0
                  CHANNELS 3 Zrotation Xrotation Yrotation
                  JOINT RightHand
                  {
                    OFFSET 0 13.6636 0
                    CHANNELS 3 Zrotation Xrotation Yrotation
                    End Site
                    {
                      OFFSET 0 0 0
                    }
                  }
                }
              }
            }
          }
        }
        JOINT LeftShoulder
        {
          OFFSET 3.57307 9.16386 -0.497525
          CHANNELS 3 Zrotation Xrotation Yrotation
          JOINT LeftArm
          {
            OFFSET 0 12.0192 0
            CHANNELS 3 Zrotation Xrotation Yrotation
            JOINT LeftArmRoll
            {
              OFFSET 0 6.06755 0
              CHANNELS 3 Zrotation Xrotation Yrotation
              JOINT LeftForeArm
              {
                OFFSET 0 17.6726 0
                CHANNELS 3 Zrotation Xrotation Yrotation
                JOINT LeftForeArmRoll
                {
                  OFFSET 0 6.80872 0
                  CHANNELS 3 Zrotation Xrotation Yrotation
                  JOINT LeftHand
                  {
                    OFFSET 0 13.6636 0
                    CHANNELS 3 Zrotation Xrotation Yrotation
                    End Site
                    {
                      OFFSET 0 0 0
                    }
                  }
                }
              }
            }
          }
        }
      }
    }
  }
  JOINT RightUpLeg
  {
    OFFSET -5.27774 -0.967797 -0.811858
    CHANNELS 3 Zrotation Xrotation Yrotation
    JOINT RightUpLegRoll
    {
      OFFSET 0 16.0214 0
      CHANNELS 3 Zrotation Xrotation Yrotation
      JOINT RightLeg
      {
        OFFSET 0 -19.8401 0
        CHANNELS 3 Zrotation Xrotation Yrotation
        JOINT RightLegRoll
        {
          OFFSET 0 19.905 0
          CHANNELS 3 Zrotation Xrotation Yrotation
          JOINT RightFoot
          {
            OFFSET 0 16.5675 0
            CHANNELS 3 Zrotation Xrotation Yrotation
            JOINT RightToeBase
            {
              OFFSET 0 13.8496 0
              CHANNELS 3 Zrotation Xrotation Yrotation
              End Site
              {
                OFFSET 0.00587034 6.70728 -0.773116
              }
            }
          }
        }
      }
    }
  }
  JOINT LeftUpLeg
  {
    OFFSET 5.27774 -0.967797 -0.811858
    CHANNELS 3 Zrotation Xrotation Yrotation
    JOINT LeftUpLegRoll
    {
      OFFSET 0 16.0215 0
      CHANNELS 3 Zrotation Xrotation Yrotation
      JOINT LeftLeg
      {
        OFFSET 0 19.84 0
        CHANNELS 3 Zrotation Xrotation Yrotation
        JOINT LeftLegRoll
        {
          OFFSET 0 20.089 0
          CHANNELS 3 Zrotation Xrotation Yrotation
          JOINT LeftFoot
          {
            OFFSET 0 16.3835 0
            CHANNELS 3 Zrotation Xrotation Yrotation
            JOINT LeftToeBase
            {
              OFFSET 0 13.8496 0
              CHANNELS 3 Zrotation Xrotation Yrotation
              End Site
              {
                OFFSET -0.0263083 6.70727 -0.773117
              }
            }
          }
        }
      }
    }
  }
}
MOTION
Frames: 10
Frame Time: 0.00208333
49.2061 54.1352 -9.87475 -2.44331 0.0523154 4.7372 0.726175 -0.321456 0.0290401 1.45271 3.35995 -0.0332225 1.45485 5.00471 -0.0598301 5.78134 2.34512 -4.42803 -1.07488 7.60055 -2.99836 79.5089 -1.26434 -2.77513 99.276 36.2892 -5.45576 8.34896e-015 6.36111e-015 4.77083e-015 -3.68806 -0.0365755 -1.99308 -4.4118e-006 5.81243e-006 -3.01161 8.03009 -4.95139 0.697656 -59.6025 -4.90338 3.0389 -120.299 31.4068 23.9213 -3.31614e-006 2.5263e-006 1.10383e-006 3.64128 -0.0286646 1.99268 9.04582e-006 -4.73731e-006 3.0116 -8.03011 -4.95137 -0.697632 -165.928 86.703 -15.2183 180 7.01568e-015 179.019 -170.262 75.0595 168.661 1.8279e-006 3.62593e-006 1.67824 -20.1815 69.398 20.7866 8.13649 25.2327 -3.48774 107.827 85.985 75.4148 4.54188e-006 -4.6773e-006 -1.15752 21.7526 -77.2958 20.5466 -2.8201e-006 -1.01903e-005 -1.57192 16.1987 62.7586 -15.9287 -8.13649 25.2326 3.48773 
49.2236 54.1362 -9.86536 -2.42102 -0.0670477 4.71123 0.725203 -0.322827 0.0288036 1.45048 3.35734 -0.0331558 1.45257 5.0021 -0.0597034 5.72599 2.45537 -4.44326 -1.03217 7.62464 -3.02171 79.5066 -1.30965 -2.79294 99.2822 36.2901 -5.4722 -1.07344e-014 3.18055e-015 -4.77083e-015 -3.68469 -0.0367267 -1.99309 -4.4118e-006 5.81243e-006 -3.01161 8.03009 -4.95139 0.697656 -59.6817 -4.8976 3.04054 -120.242 31.3936 23.8604 -3.31614e-006 2.5263e-006 1.10383e-006 3.64367 -0.0288672 1.9927 9.04582e-006 -4.73731e-006 3.0116 -8.03011 -4.95137 -0.697632 -166.057 86.6409 -15.0764 180 7.01567e-015 179.015 -170.132 75.1436 168.542 1.8279e-006 3.62593e-006 1.68136 -20.1689 69.3835 20.773 8.13649 25.2327 -3.48774 108.998 85.9547 74.2241 4.54188e-006 -4.6773e-006 -1.16317 22.0123 -77.4051 20.7993 -2.8201e-006 -1.01903e-005 -1.57477 16.1915 62.7427 -15.9196 -8.13649 25.2326 3.48773 
49.231 54.129 -9.88029 -2.39934 -0.186727 4.68523 0.724272 -0.324009 0.02857 1.44833 3.35511 -0.0330839 1.45039 4.99988 -0.0595662 5.6715 2.56401 -4.45835 -0.990053 7.64952 -3.04485 79.5045 -1.35499 -2.81078 99.2886 36.2891 -5.48873 3.97569e-015 3.18055e-015 3.97569e-015 -3.68132 -0.0368609 -1.9931 -4.4118e-006 5.81243e-006 -3.01161 8.03009 -4.95139 0.697656 -59.7593 -4.8926 3.04258 -120.187 31.3793 23.8017 -3.31614e-006 2.5263e-006 1.10383e-006 3.64641 -0.0291289 1.99272 9.04582e-006 -4.73731e-006 3.0116 -8.03011 -4.95137 -0.697632 -166.178 86.5783 -14.9421 180 7.01566e-015 179.01 -169.999 75.2285 168.421 1.8279e-006 3.62593e-006 1.6845 -20.1562 69.3688 20.7592 8.13649 25.2327 -3.48774 110.167 85.9226 73.0353 4.54188e-006 -4.6773e-006 -1.16886 22.2782 -77.5141 21.0581 -2.8201e-006 -1.01903e-005 -1.5776 16.1842 62.7267 -15.9105 -8.13649 25.2326 3.48773 
49.2459 54.1255 -9.8764 -2.37826 -0.306576 4.65922 0.72336 -0.325043 0.0283414 1.44622 3.35319 -0.0330074 1.44825 4.99795 -0.0594208 5.61856 2.6717 -4.47322 -0.94906 7.6745 -3.0675 79.503 -1.40015 -2.8286 99.295 36.2859 -5.50518 6.36111e-015 -3.18055e-015 1.59028e-015 -3.67799 -0.0369696 -1.9931 -4.4118e-006 5.81243e-006 -3.01161 8.03009 -4.95139 0.697656 -59.8348 -4.88814 3.04484 -120.135 31.3635 23.7452 -3.31614e-006 2.5263e-006 1.10383e-006 3.64931 -0.0294274 1.99274 9.04582e-006 -4.73731e-006 3.0116 -8.03011 -4.95137 -0.697632 -166.292 86.5154 -14.814 180 7.01565e-015 179.006 -169.864 75.3138 168.298 1.8279e-006 3.62593e-006 1.68767 -20.1434 69.3539 20.7453 8.13649 25.2327 -3.48774 111.327 85.8888 71.8559 4.54188e-006 -4.6773e-006 -1.17457 22.5499 -77.6226 21.3224 -2.8201e-006 -1.01903e-005 -1.58042 16.177 62.7107 -15.9014 -8.13649 25.2326 3.48773 
49.2552 54.1215 -9.8852 -2.35776 -0.426448 4.63322 0.722442 -0.325969 0.02812 1.44411 3.35149 -0.0329274 1.44613 4.99625 -0.0592697 5.56788 2.77911 -4.48779 -0.909749 7.69886 -3.08937 79.5022 -1.44493 -2.84633 99.3013 36.2798 -5.52135 1.78906e-014 0 7.95139e-015 -3.67474 -0.0370443 -1.99311 -4.4118e-006 5.81243e-006 -3.01161 8.03009 -4.95139 0.697656 -59.9077 -4.88401 3.04714 -120.086 31.3458 23.6909 -3.31614e-006 2.5263e-006 1.10383e-006 3.65221 -0.0297406 1.99276 9.04582e-006 -4.73731e-006 3.0116 -8.03011 -4.95137 -0.697632 -166.401 86.452 -14.6907 180 7.01564e-015 179.002 -169.729 75.3991 168.174 1.8279e-006 3.62593e-006 1.69084 -20.1306 69.339 20.7314 8.13649 25.2327 -3.48774 112.471 85.8534 70.6931 4.54188e-006 -4.6773e-006 -1.18028 22.8266 -77.7304 21.5917 -2.8201e-006 -1.01903e-005 -1.58324 16.1699 62.6947 -15.8923 -8.13649 25.2326 3.48773 
49.2585 54.128 -9.93367 -2.33782 -0.546196 4.60723 0.721496 -0.326828 0.0279078 1.44196 3.34992 -0.0328446 1.44399 4.99468 -0.0591153 5.52014 2.88692 -4.50198 -0.872672 7.72188 -3.11017 79.5025 -1.48911 -2.8639 99.3073 36.2703 -5.53707 -1.59028e-015 -6.36111e-015 7.95139e-016 -3.67161 -0.0370765 -1.99311 -4.4118e-006 5.81243e-006 -3.01161 8.03009 -4.95139 0.697656 -59.9776 -4.87999 3.0493 -120.04 31.3258 23.639 -3.31614e-006 2.5263e-006 1.10383e-006 3.65493 -0.0300465 1.99278 9.04582e-006 -4.73731e-006 3.0116 -8.03011 -4.95137 -0.697632 -166.506 86.3882 -14.5709 180 7.01564e-015 178.997 -169.592 75.4843 168.049 1.8279e-006 3.62593e-006 1.69403 -20.1179 69.3241 20.7175 8.13649 25.2327 -3.48774 113.592 85.8165 69.5535 4.54188e-006 -4.6773e-006 -1.18598 23.1078 -77.8371 21.8652 -2.8201e-006 -1.01903e-005 -1.58609 16.1628 62.6788 -15.8833 -8.13649 25.2326 3.48773 
49.2702 54.1275 -9.92671 -2.31845 -0.665674 4.58127 0.720498 -0.32766 0.0277071 1.43972 3.34841 -0.03276 1.44178 4.99317 -0.05896 5.47605 2.99578 -4.51571 -0.838383 7.74285 -3.12961 79.504 -1.53248 -2.88127 99.313 36.2569 -5.55215 3.57812e-015 -3.18055e-015 7.95139e-016 -3.66863 -0.0370576 -1.9931 -4.4118e-006 5.81243e-006 -3.01161 8.03009 -4.95139 0.697656 -60.0438 -4.87585 3.05116 -119.996 31.3032 23.5894 -3.31614e-006 2.5263e-006 1.10383e-006 3.6573 -0.0303229 1.9928 9.04582e-006 -4.73731e-006 3.0116 -8.03011 -4.95137 -0.697632 -166.608 86.324 -14.4532 180 7.01563e-015 178.993 -169.455 75.5689 167.923 1.8279e-006 3.62593e-006 1.69721 -20.1054 69.3093 20.7037 8.13649 25.2327 -3.48774 114.684 85.7785 68.4436 4.54188e-006 -4.6773e-006 -1.19166 23.3927 -77.9426 22.1425 -2.8201e-006 -1.01903e-005 -1.58897 16.1559 62.663 -15.8743 -8.13649 25.2326 3.48773 
49.2728 54.1252 -9.94599 -2.29961 -0.784735 4.55536 0.719424 -0.328507 0.0275199 1.43734 3.34687 -0.0326743 1.43946 4.99164 -0.0588061 5.4363 3.10638 -4.5289 -0.807438 7.76107 -3.14741 79.5071 -1.57484 -2.89836 99.3181 36.2389 -5.56639 -5.1684e-015 -6.36111e-015 -7.95139e-016 -3.66584 -0.0369791 -1.9931 -4.4118e-006 5.81243e-006 -3.01161 8.03009 -4.95139 0.697656 -60.1058 -4.87138 3.05252 -119.956 31.2776 23.5423 -3.31614e-006 2.5263e-006 1.10383e-006 3.65915 -0.0305477 1.99282 9.04582e-006 -4.73731e-006 3.0116 -8.03011 -4.95137 -0.697632 -166.708 86.2593 -14.3366 180 7.01562e-015 178.989 -169.318 75.6526 167.796 1.8279e-006 3.62593e-006 1.7004 -20.093 69.2947 20.69 8.13649 25.2327 -3.48774 115.741 85.7394 67.3691 4.54188e-006 -4.6773e-006 -1.19728 23.6806 -78.0466 22.4226 -2.8201e-006 -1.01903e-005 -1.59189 16.1492 62.6474 -15.8654 -8.13649 25.2326 3.48773 
49.283 54.1236 -9.95652 -2.2813 -0.903232 4.52951 0.718253 -0.329408 0.0273484 1.4348 3.34523 -0.0325884 1.437 4.99 -0.058656 5.40158 3.21937 -4.54148 -0.780393 7.7758 -3.16328 79.512 -1.61597 -2.91512 99.3226 36.2159 -5.57962 -5.96354e-015 3.18055e-015 -4.77083e-015 -3.66328 -0.0368325 -1.99308 -4.4118e-006 5.81243e-006 -3.01161 8.03009 -4.95139 0.697656 -60.1632 -4.86635 3.05322 -119.92 31.2485 23.4976 -3.31614e-006 2.5263e-006 1.10383e-006 3.66031 -0.0306988 1.99283 9.04582e-006 -4.73731e-006 3.0116 -8.03011 -4.95137 -0.697632 -166.808 86.1942 -14.22 180 7.01561e-015 178.985 -169.181 75.7352 167.67 1.8279e-006 3.62593e-006 1.70357 -20.081 69.2804 20.6766 8.13649 25.2327 -3.48774 116.758 85.6996 66.3356 4.54188e-006 -4.6773e-006 -1.20285 23.9705 -78.1489 22.7048 -2.8201e-006 -1.01903e-005 -1.59486 16.1425 62.6319 -15.8567 -8.13649 25.2326 3.48773 
49.294 54.1237 -9.94653 -2.26349 -1.02102 4.50374 0.716959 -0.330404 0.0271948 1.43203 3.3434 -0.0325031 1.43435 4.98816 -0.0585121 5.3726 3.33543 -4.55337 -0.757806 7.78635 -3.17692 79.519 -1.65566 -2.93149 99.3263 36.1872 -5.59165 3.33958e-014 0 1.66979e-014 -3.66099 -0.0366092 -1.99307 -4.4118e-006 5.81243e-006 -3.01161 8.03009 -4.95139 0.697656 -60.2154 -4.86053 3.05306 -119.886 31.2157 23.4554 -3.31614e-006 2.5263e-006 1.10383e-006 3.6606 -0.0307541 1.99283 9.04582e-006 -4.73731e-006 3.0116 -8.03011 -4.95137 -0.697632 -166.908 86.1287 -14.1024 180 7.0156e-015 178.98 -169.044 75.8162 167.544 1.8279e-006 3.62593e-006 1.70672 -20.0693 69.2664 20.6635 8.13649 25.2327 -3.48774 117.73 85.6593 65.3478 4.54188e-006 -4.6773e-006 -1.20834 24.2618 -78.2493 22.9883 -2.8201e-006 -1.01903e-005 -1.59791 16.1361 62.6167 -15.8481 -8.13649 25.2326 3.48773 
